<svg width="124" height="126" viewBox="0 0 124 126" fill="none" xmlns="http://www.w3.org/2000/svg">
  <path
    d="M49.7446 18.9149L60.9395 30.2728H62.5721L73.8836 18.9149V12.8262H66.6536V16.5731H63.1552V26.643H59.5402V16.5731H56.1584V12.8262H49.7446V18.9149Z"
    fill="currentColor" stroke="currentColor" stroke-width="0.873239" />
  <path
    d="M56.5078 5.09821V11.4212H60.2394V15.2852H63.1548V11.4212H66.6532V5.09821H63.1548V1H60.2394V5.09821H56.5078Z"
    fill="currentColor" stroke="currentColor" stroke-width="0.873239" />
  <path
    d="M49.9775 107.085L61.1724 95.7272H62.805L74.1165 107.085V113.174H66.8865V109.427H63.3881V99.357H59.7731V109.427H56.3913V113.174H49.9775V107.085Z"
    fill="currentColor" stroke="currentColor" stroke-width="0.873239" />
  <path
    d="M56.7412 120.902V114.579H60.4728V110.715H63.3882V114.579H66.8866V120.902H63.3882V125H60.4728V120.902H56.7412Z"
    fill="currentColor" stroke="currentColor" stroke-width="0.873239" />
  <path
    d="M18.8417 75.002L30.1532 63.7612L30.1532 62.1219L18.8417 50.764L12.7778 50.764L12.7778 58.0237L16.5095 58.0237L16.5095 61.5364L26.5382 61.5364L26.5382 65.1663L16.5095 65.1663L16.5095 68.5619L12.7778 68.5619L12.7778 75.002L18.8417 75.002Z"
    fill="currentColor" stroke="currentColor" stroke-width="0.873239" />
  <path
    d="M5.08147 68.2104L11.3786 68.2104L11.3786 64.4635L15.2268 64.4635L15.2268 61.5362L11.3786 61.5362L11.3786 58.0235L5.08147 58.0235L5.08147 61.5362L1 61.5362L1 64.4635L5.08147 64.4635L5.08147 68.2104Z"
    fill="currentColor" stroke="currentColor" stroke-width="0.873239" />
  <path d="M36.1006 59.1946L21.5239 44.5581H40.2987L54.8754 59.1946H36.1006Z" stroke="#361E14"
    stroke-width="0.873239" />
  <path d="M44.1924 41.2533V20.5542L57.4682 33.8844L57.4682 54.5835L44.1924 41.2533Z"
    stroke="#361E14" stroke-width="0.873239" />
  <path d="M87.7163 59.1946L102.293 44.5581H83.5182L68.9415 59.1946H87.7163Z" stroke="#361E14"
    stroke-width="0.873239" />
  <path d="M79.6245 41.2533V20.5542L66.3487 33.8844V54.5835L79.6245 41.2533Z" stroke="#361E14"
    stroke-width="0.873239" />
  <path d="M36.334 66.6883L21.7573 81.3247H40.5321L55.1088 66.6883H36.334Z" stroke="#361E14"
    stroke-width="0.873239" />
  <path d="M44.4258 84.6295L44.4258 105.329L57.7016 91.9984L57.7016 71.2993L44.4258 84.6295Z"
    stroke="#361E14" stroke-width="0.873239" />
  <path d="M87.9492 66.6883L102.526 81.3247H83.7511L69.1744 66.6883H87.9492Z" stroke="#361E14"
    stroke-width="0.873239" />
  <path d="M79.8579 84.6295V105.329L66.5821 91.9984V71.2993L79.8579 84.6295Z" stroke="#361E14"
    stroke-width="0.873239" />
  <path
    d="M104.975 75.002L93.6636 63.7612L93.6636 62.1219L104.975 50.764L111.039 50.764L111.039 58.0237L107.307 58.0237L107.307 61.5364L97.2787 61.5364L97.2787 65.1663L107.307 65.1663L107.307 68.5619L111.039 68.5619L111.039 75.002L104.975 75.002Z"
    fill="currentColor" stroke="currentColor" stroke-width="0.873239" />
  <path
    d="M118.735 68.2104L112.438 68.2104L112.438 64.4635L108.59 64.4635L108.59 61.5362L112.438 61.5362L112.438 58.0235L118.735 58.0235L118.735 61.5362L122.817 61.5362L122.817 64.4635L118.735 64.4635L118.735 68.2104Z"
    fill="currentColor" stroke="currentColor" stroke-width="0.873239" />
  <path
    d="M64.6338 57.688L67.2188 60.2944V65.9038L64.6289 68.6626H59.3525L56.875 65.9087V60.2886L59.3477 57.688H64.6338Z"
    fill="currentColor" stroke="currentColor" stroke-width="0.734139" />
</svg>