<svg width="122" height="124" viewBox="0 0 122 124" fill="none" xmlns="http://www.w3.org/2000/svg">
  <path d="M35.1006 58.1946L20.5239 43.5581H39.2987L53.8754 58.1946H35.1006Z" fill="currentColor"
    stroke="currentColor" stroke-width="0.873239" />
  <path d="M43.1924 40.2533V19.5542L56.4682 32.8844L56.4682 53.5835L43.1924 40.2533Z"
    fill="currentColor" stroke="currentColor" stroke-width="0.873239" />
  <path d="M86.7163 58.1946L101.293 43.5581H82.5182L67.9415 58.1946H86.7163Z" fill="currentColor"
    stroke="currentColor" stroke-width="0.873239" />
  <path d="M78.6245 40.2533V19.5542L65.3487 32.8844V53.5835L78.6245 40.2533Z" fill="currentColor"
    stroke="currentColor" stroke-width="0.873239" />
  <path d="M35.334 65.6883L20.7573 80.3247H39.5321L54.1088 65.6883H35.334Z" fill="currentColor"
    stroke="currentColor" stroke-width="0.873239" />
  <path d="M43.4258 83.6295L43.4258 104.329L56.7016 90.9984L56.7016 70.2993L43.4258 83.6295Z"
    fill="currentColor" stroke="currentColor" stroke-width="0.873239" />
  <path d="M86.9492 65.6883L101.526 80.3247H82.7511L68.1744 65.6883H86.9492Z" fill="currentColor"
    stroke="currentColor" stroke-width="0.873239" />
  <path d="M78.8579 83.6295V104.329L65.5821 90.9984V70.2993L78.8579 83.6295Z" fill="currentColor"
    stroke="currentColor" stroke-width="0.873239" />
  <path
    d="M63.6338 56.688L66.2188 59.2944V64.9038L63.6289 67.6626H58.3525L55.875 64.9087V59.2886L58.3477 56.688H63.6338Z"
    fill="#FAFAFA" stroke="#361E14" stroke-width="0.734139" />
</svg>