<svg width="263" height="271" viewBox="0 0 263 271" fill="none" xmlns="http://www.w3.org/2000/svg">
<path d="M57.6163 129.064L6.87183 78.3197H72.2308L122.975 129.064H57.6163Z" fill="#DFBB92" stroke="#080808" stroke-width="1.62382"/>
<path d="M77.6658 74.5754V2.81184L123.882 49.0276V120.791L77.6658 74.5754Z" fill="#DFBB92" stroke="#080808" stroke-width="1.62382"/>
<path d="M204.572 129.064L255.317 78.3197H189.958L139.213 129.064H204.572Z" fill="#DFBB92" stroke="#080808" stroke-width="1.62382"/>
<path d="M184.775 74.5754V2.81184L138.559 49.0276V120.791L184.775 74.5754Z" fill="#DFBB92" stroke="#080808" stroke-width="1.62382"/>
<path d="M57.6163 143.273L6.87183 194.017H72.2308L122.975 143.273H57.6163Z" fill="#DFBB92" stroke="#080808" stroke-width="1.62382"/>
<path d="M77.6658 196.796V268.559L123.882 222.344V150.58L77.6658 196.796Z" fill="#DFBB92" stroke="#080808" stroke-width="1.62382"/>
<path d="M205.384 143.273L256.129 194.017H190.77L140.025 143.273H205.384Z" fill="#DFBB92" stroke="#080808" stroke-width="1.62382"/>
<path d="M185.587 196.796V268.559L139.371 222.344V150.58L185.587 196.796Z" fill="#DFBB92" stroke="#080808" stroke-width="1.62382"/>
<path d="M189.552 73.4483L251.257 11.7429" stroke="#080808" stroke-width="1.62382" stroke-linecap="round"/>
<path d="M203.354 59.6458V28.5323L228.524 2.81191V34.4765" stroke="#080808" stroke-width="1.62382" stroke-linecap="round"/>
<path d="M203.354 59.6458L234.468 59.6458L260.188 34.4765L228.524 34.4765" stroke="#080808" stroke-width="1.62382" stroke-linecap="round"/>
<rect x="251.257" y="2.81191" width="8.93104" height="8.93104" fill="#821404" stroke="#821404" stroke-width="1.62382"/>
<path d="M189.552 196.859L251.257 258.564" stroke="#080808" stroke-width="1.62382" stroke-linecap="round"/>
<path d="M203.354 210.661V241.775L228.524 267.495V235.831" stroke="#080808" stroke-width="1.62382" stroke-linecap="round"/>
<path d="M203.354 210.661L234.468 210.661L260.188 235.831L228.524 235.831" stroke="#080808" stroke-width="1.62382" stroke-linecap="round"/>
<rect x="0.811912" y="-0.811912" width="8.93104" height="8.93104" transform="matrix(1 0 0 -1 250.445 266.683)" fill="#821404" stroke="#821404" stroke-width="1.62382"/>
<path d="M74.2605 75.0721L12.5552 13.3668" stroke="#080808" stroke-width="1.62382" stroke-linecap="round"/>
<path d="M60.458 61.2696V30.1562L35.2887 4.43574V36.1003" stroke="#080808" stroke-width="1.62382" stroke-linecap="round"/>
<path d="M60.4579 61.2696L29.3445 61.2696L3.62402 36.1003L35.2886 36.1003" stroke="#080808" stroke-width="1.62382" stroke-linecap="round"/>
<rect x="-0.811912" y="0.811912" width="8.93104" height="8.93104" transform="matrix(-1 0 0 1 11.7431 3.62382)" fill="#821404" stroke="#821404" stroke-width="1.62382"/>
<path d="M73.4485 196.859L11.7432 258.564" stroke="#080808" stroke-width="1.62382" stroke-linecap="round"/>
<path d="M59.646 210.661V241.775L34.4767 267.495V235.831" stroke="#080808" stroke-width="1.62382" stroke-linecap="round"/>
<path d="M59.6461 210.661L28.5327 210.661L2.81226 235.831L34.4768 235.831" stroke="#080808" stroke-width="1.62382" stroke-linecap="round"/>
<rect x="11.7433" y="267.495" width="8.93104" height="8.93104" transform="rotate(180 11.7433 267.495)" fill="#821404" stroke="#821404" stroke-width="1.62382"/>
<path d="M224.464 120.539L208.632 136.371L224.464 152.204H249.633L233.801 136.371L249.633 120.539H224.464Z" fill="#821404" stroke="#821404" stroke-width="1.62382" stroke-linecap="round"/>
<path d="M37.7244 120.539L53.5566 136.371L37.7244 152.204H12.5551L28.3874 136.371L12.5551 120.539H37.7244Z" fill="#821404" stroke="#821404" stroke-width="1.62382" stroke-linecap="round"/>
</svg>
